# xmcd
#
# Track frame offsets: 
#        150
#        14731
#        30564
#        45551
#        57486
#        74341
#        94930
#        108756
#        122307
#        139775
#        159092
#        181688
#
# Disc length: 2684 seconds
#
# Revision: 3
# Processed by: cddbd v1.5.2PL0 Copyright (c) Steve Scherf et al.
# Submitted via: ExactAudioCopyFreeDBPlugin 1.0
#
DISCID=940a7a0c
DTITLE=Patterson Hood - Heat Lightning Rumbles In The Distance
DYEAR=2012
DGENRE=Rock
TTITLE0=12:01
TTITLE1=Leaving Time
TTITLE2=Disappear
TTITLE3=Better Off Without
TTITLE4=(untold pretties)
TTITLE5=After The Damage
TTITLE6=Better Than The Truth
TTITLE7=Betty Ford
TTITLE8=Depression Era
TTITLE9=Heat Lightning Rumbles In The Distance
TTITLE10=Come Back Little Star
TTITLE11=Fifteen Days (Leaving Time Again)
EXTD=
EXTT0=
EXTT1=
EXTT2=
EXTT3=
EXTT4=
EXTT5=
EXTT6=
EXTT7=
EXTT8=
EXTT9=
EXTT10=
EXTT11=
PLAYORDER=
